<svg width="27" height="13" viewBox="0 0 27 13" fill="none" xmlns="http://www.w3.org/2000/svg">
<path d="M26.013 3.50797C26.013 2.64571 25.6704 1.81877 25.0607 1.20907C24.451 0.599364 23.6241 0.256836 22.7618 0.256836H3.25504C2.39279 0.256836 1.56585 0.599364 0.956146 1.20907C0.346441 1.81877 0.00391288 2.64571 0.00391288 3.50797C0.0036622 3.53534 0.0105214 3.56232 0.0238182 3.58625C0.037115 3.61019 0.0563938 3.63026 0.0797722 3.64451L12.1415 11.8634C12.3998 12.0239 12.6978 12.109 13.0019 12.109C13.3061 12.109 13.6041 12.0239 13.8624 11.8634L25.9306 3.64451C25.9549 3.63075 25.9752 3.61095 25.9897 3.58703C26.0041 3.56312 26.0121 3.53588 26.013 3.50797Z" fill="white"/>
</svg>
